<svg version="1" xmlns="http://www.w3.org/2000/svg" width="793.333" height="793.333" viewBox="0 0 595.000000 595.000000"><path d="M65.4 43.8c-14.5 5.2-25.1 17.5-28.3 33-.8 3.8-1.1 73-1.1 237.2v232h81l.2-147.8.3-147.7 49.6 96.5c27.4 53.1 60.4 117.4 73.5 143 26.4 51.4 28.4 54.3 40.1 59.8 5.1 2.4 7 2.7 15.8 2.7 9.3 0 10.5-.2 16.6-3.2 13.1-6.5 8.9.9 89.4-156.4l73-142.7.3 147.9.2 147.9h82V318.2c0-140.5-.4-230.9-1-236.1-3.8-33.1-36.3-50.5-62-33.3-3 2.1-7.1 5.8-9 8.5-1.9 2.6-15.6 28-30.3 56.5-14.8 28.4-40.5 78-57.2 110.2-16.6 32.2-42.9 82.8-58.3 112.5-15.4 29.7-31.5 60.9-35.8 69.2-7.2 14-9.4 17.2-9.4 14.2 0-.7-7-14.7-15.7-31.3-8.6-16.6-27.8-53.7-42.8-82.6-32.2-62.2-69.3-133.7-81.7-157.5-4.8-9.4-17-32.9-27-52.4-20.7-40.2-23.9-44.7-35.5-50.2-8.5-4-19.2-4.9-26.9-2.1z"/></svg>